<mxfile host="65bd71144e" modified="2020-10-25T16:57:01.716Z" agent="5.0 (Windows NT 10.0; Win64; x64) AppleWebKit/537.36 (KHTML, like Gecko) Code/1.50.1 Chrome/83.0.4103.122 Electron/9.2.1 Safari/537.36" etag="bPSqof_Z4ycPK-JOPDua" version="13.6.5">
    <diagram id="bE86TtsSrcEjPB5EsWNl" name="Page-1">
        <mxGraphModel dx="1011" dy="715" grid="1" gridSize="10" guides="1" tooltips="1" connect="1" arrows="1" fold="1" page="1" pageScale="1" pageWidth="827" pageHeight="1169" math="0" shadow="0">
            <root>
                <mxCell id="0"/>
                <mxCell id="1" parent="0"/>
                <mxCell id="-D-xDnr4cXBWLI_m4Q0X-37" style="edgeStyle=orthogonalEdgeStyle;orthogonalLoop=1;jettySize=auto;html=1;startArrow=none;startFill=0;strokeColor=#545B64;curved=1;entryX=0;entryY=0.5;entryDx=0;entryDy=0;" parent="1" source="-D-xDnr4cXBWLI_m4Q0X-35" target="-D-xDnr4cXBWLI_m4Q0X-38" edge="1">
                    <mxGeometry relative="1" as="geometry">
                        <mxPoint x="579.6486101255548" y="280" as="targetPoint"/>
                        <Array as="points">
                            <mxPoint x="450" y="95"/>
                            <mxPoint x="450" y="280"/>
                        </Array>
                    </mxGeometry>
                </mxCell>
                <mxCell id="-D-xDnr4cXBWLI_m4Q0X-11" value="manage.py runworker" style="fillColor=none;strokeColor=#5A6C86;dashed=1;verticalAlign=top;fontStyle=0;fontColor=#5A6C86;" parent="1" vertex="1">
                    <mxGeometry x="20" y="130" width="160" height="190" as="geometry"/>
                </mxCell>
                <mxCell id="-D-xDnr4cXBWLI_m4Q0X-12" value="manage.py runserver" style="fillColor=none;strokeColor=#5A6C86;dashed=1;verticalAlign=top;fontStyle=0;fontColor=#5A6C86;" parent="1" vertex="1">
                    <mxGeometry x="280" y="130" width="150" height="190" as="geometry"/>
                </mxCell>
                <mxCell id="-D-xDnr4cXBWLI_m4Q0X-7" style="edgeStyle=orthogonalEdgeStyle;rounded=0;orthogonalLoop=1;jettySize=auto;html=1;entryX=1.02;entryY=0.524;entryDx=0;entryDy=0;entryPerimeter=0;startArrow=classic;startFill=1;strokeColor=#545B64;" parent="1" source="-D-xDnr4cXBWLI_m4Q0X-1" target="-D-xDnr4cXBWLI_m4Q0X-4" edge="1">
                    <mxGeometry relative="1" as="geometry">
                        <Array as="points">
                            <mxPoint x="270" y="272"/>
                            <mxPoint x="270" y="272"/>
                        </Array>
                    </mxGeometry>
                </mxCell>
                <mxCell id="-D-xDnr4cXBWLI_m4Q0X-1" value="Django&lt;br&gt;Application" style="rounded=0;whiteSpace=wrap;html=1;fillColor=#f5f5f5;strokeColor=#666666;fontColor=#333333;" parent="1" vertex="1">
                    <mxGeometry x="289" y="250" width="130" height="60" as="geometry"/>
                </mxCell>
                <mxCell id="-D-xDnr4cXBWLI_m4Q0X-2" value="Game&lt;br&gt;Consumer" style="rounded=0;whiteSpace=wrap;html=1;fillColor=#f5f5f5;strokeColor=#666666;fontColor=#333333;" parent="1" vertex="1">
                    <mxGeometry x="290" y="173" width="130" height="60" as="geometry"/>
                </mxCell>
                <mxCell id="-D-xDnr4cXBWLI_m4Q0X-9" style="edgeStyle=orthogonalEdgeStyle;rounded=0;orthogonalLoop=1;jettySize=auto;html=1;startArrow=classic;startFill=1;strokeColor=#545B64;" parent="1" source="-D-xDnr4cXBWLI_m4Q0X-3" edge="1">
                    <mxGeometry relative="1" as="geometry">
                        <mxPoint x="200" y="271" as="targetPoint"/>
                        <Array as="points">
                            <mxPoint x="105" y="280"/>
                        </Array>
                    </mxGeometry>
                </mxCell>
                <mxCell id="-D-xDnr4cXBWLI_m4Q0X-3" value="Background&lt;br&gt;Consumer" style="rounded=0;whiteSpace=wrap;html=1;fillColor=#f5f5f5;strokeColor=#666666;fontColor=#333333;" parent="1" vertex="1">
                    <mxGeometry x="40" y="170" width="130" height="130" as="geometry"/>
                </mxCell>
                <mxCell id="-D-xDnr4cXBWLI_m4Q0X-4" value="Redis" style="aspect=fixed;html=1;points=[];align=center;image;fontSize=12;image=img/lib/mscae/Cache_Redis_Product.svg;" parent="1" vertex="1">
                    <mxGeometry x="204" y="250" width="50" height="42" as="geometry"/>
                </mxCell>
                <mxCell id="-D-xDnr4cXBWLI_m4Q0X-15" style="edgeStyle=orthogonalEdgeStyle;orthogonalLoop=1;jettySize=auto;html=1;entryX=1;entryY=0.5;entryDx=0;entryDy=0;startArrow=none;startFill=0;strokeColor=#545B64;curved=1;exitX=0;exitY=0.5;exitDx=0;exitDy=0;" parent="1" source="-D-xDnr4cXBWLI_m4Q0X-38" target="-D-xDnr4cXBWLI_m4Q0X-1" edge="1">
                    <mxGeometry relative="1" as="geometry">
                        <mxPoint x="530" y="320" as="sourcePoint"/>
                    </mxGeometry>
                </mxCell>
                <mxCell id="-D-xDnr4cXBWLI_m4Q0X-16" value="HTTP" style="edgeLabel;html=1;align=center;verticalAlign=middle;resizable=0;points=[];" parent="-D-xDnr4cXBWLI_m4Q0X-15" vertex="1" connectable="0">
                    <mxGeometry x="0.246" y="3" relative="1" as="geometry">
                        <mxPoint x="13.81" y="7" as="offset"/>
                    </mxGeometry>
                </mxCell>
                <mxCell id="-D-xDnr4cXBWLI_m4Q0X-22" value="WebSocket" style="edgeStyle=orthogonalEdgeStyle;orthogonalLoop=1;jettySize=auto;html=1;startArrow=classic;startFill=1;strokeColor=#FF3333;curved=1;" parent="1" source="-D-xDnr4cXBWLI_m4Q0X-28" target="-D-xDnr4cXBWLI_m4Q0X-2" edge="1">
                    <mxGeometry x="-0.0106" y="40" relative="1" as="geometry">
                        <mxPoint x="510.1486101255548" y="205" as="sourcePoint"/>
                        <Array as="points">
                            <mxPoint x="480" y="70"/>
                            <mxPoint x="480" y="203"/>
                        </Array>
                        <mxPoint as="offset"/>
                    </mxGeometry>
                </mxCell>
                <mxCell id="-D-xDnr4cXBWLI_m4Q0X-25" style="edgeStyle=orthogonalEdgeStyle;rounded=0;orthogonalLoop=1;jettySize=auto;html=1;startArrow=classic;startFill=1;strokeColor=#545B64;" parent="1" target="-D-xDnr4cXBWLI_m4Q0X-2" edge="1">
                    <mxGeometry relative="1" as="geometry">
                        <mxPoint x="250" y="203" as="sourcePoint"/>
                    </mxGeometry>
                </mxCell>
                <mxCell id="-D-xDnr4cXBWLI_m4Q0X-26" style="edgeStyle=orthogonalEdgeStyle;rounded=0;orthogonalLoop=1;jettySize=auto;html=1;startArrow=classic;startFill=1;strokeColor=#545B64;" parent="1" edge="1">
                    <mxGeometry relative="1" as="geometry">
                        <mxPoint x="208" y="203" as="sourcePoint"/>
                        <mxPoint x="170" y="203" as="targetPoint"/>
                    </mxGeometry>
                </mxCell>
                <mxCell id="-D-xDnr4cXBWLI_m4Q0X-28" value="Dashboard" style="pointerEvents=1;shadow=0;dashed=0;html=1;strokeColor=none;fillColor=#505050;labelPosition=center;verticalLabelPosition=bottom;verticalAlign=top;outlineConnect=0;align=center;shape=mxgraph.office.devices.tv;opacity=50;" parent="1" vertex="1">
                    <mxGeometry x="570" y="40" width="59" height="45" as="geometry"/>
                </mxCell>
                <mxCell id="-D-xDnr4cXBWLI_m4Q0X-33" value="Static files" style="fillColor=none;strokeColor=#5A6C86;dashed=1;verticalAlign=top;fontStyle=0;fontColor=#5A6C86;" parent="1" vertex="1">
                    <mxGeometry x="279" y="10" width="150" height="110" as="geometry"/>
                </mxCell>
                <mxCell id="-D-xDnr4cXBWLI_m4Q0X-36" style="edgeStyle=orthogonalEdgeStyle;orthogonalLoop=1;jettySize=auto;html=1;startArrow=none;startFill=0;strokeColor=#545B64;curved=1;" parent="1" source="-D-xDnr4cXBWLI_m4Q0X-34" target="-D-xDnr4cXBWLI_m4Q0X-28" edge="1">
                    <mxGeometry relative="1" as="geometry">
                        <mxPoint x="560" y="163" as="targetPoint"/>
                        <Array as="points">
                            <mxPoint x="530" y="55"/>
                            <mxPoint x="530" y="55"/>
                        </Array>
                    </mxGeometry>
                </mxCell>
                <mxCell id="-D-xDnr4cXBWLI_m4Q0X-42" value="HTTP" style="edgeLabel;html=1;align=center;verticalAlign=middle;resizable=0;points=[];" parent="-D-xDnr4cXBWLI_m4Q0X-36" vertex="1" connectable="0">
                    <mxGeometry x="-0.6139" y="-17" relative="1" as="geometry">
                        <mxPoint x="42" y="-32" as="offset"/>
                    </mxGeometry>
                </mxCell>
                <mxCell id="-D-xDnr4cXBWLI_m4Q0X-34" value="Dashboard" style="rounded=0;whiteSpace=wrap;html=1;dashed=1;sketch=0;dashPattern=1 2;" parent="1" vertex="1">
                    <mxGeometry x="290" y="40" width="130" height="30" as="geometry"/>
                </mxCell>
                <mxCell id="-D-xDnr4cXBWLI_m4Q0X-35" value="Django Static Files" style="rounded=0;whiteSpace=wrap;html=1;shadow=0;fillColor=#f5f5f5;strokeColor=#666666;fontColor=#333333;" parent="1" vertex="1">
                    <mxGeometry x="289" y="80" width="130" height="30" as="geometry"/>
                </mxCell>
                <mxCell id="-D-xDnr4cXBWLI_m4Q0X-41" value="" style="group" parent="1" vertex="1" connectable="0">
                    <mxGeometry x="530.15" y="210" width="120" height="140" as="geometry"/>
                </mxCell>
                <mxCell id="-D-xDnr4cXBWLI_m4Q0X-38" value="" style="rounded=0;whiteSpace=wrap;html=1;" parent="-D-xDnr4cXBWLI_m4Q0X-41" vertex="1">
                    <mxGeometry width="120" height="140" as="geometry"/>
                </mxCell>
                <mxCell id="-D-xDnr4cXBWLI_m4Q0X-39" value="Admin UI" style="pointerEvents=1;shadow=0;dashed=0;html=1;strokeColor=none;fillColor=#505050;labelPosition=center;verticalLabelPosition=bottom;verticalAlign=top;outlineConnect=0;align=center;shape=mxgraph.office.devices.laptop;" parent="-D-xDnr4cXBWLI_m4Q0X-41" vertex="1">
                    <mxGeometry x="31" y="10" width="58" height="34" as="geometry"/>
                </mxCell>
                <mxCell id="-D-xDnr4cXBWLI_m4Q0X-40" value="Game Master" style="pointerEvents=1;shadow=0;dashed=0;html=1;strokeColor=none;fillColor=#505050;labelPosition=center;verticalLabelPosition=bottom;verticalAlign=top;outlineConnect=0;align=center;shape=mxgraph.office.devices.cell_phone_generic;" parent="-D-xDnr4cXBWLI_m4Q0X-41" vertex="1">
                    <mxGeometry x="49.49861012555482" y="70" width="21" height="37" as="geometry"/>
                </mxCell>
                <mxCell id="2" value="Database" style="aspect=fixed;html=1;points=[];align=center;image;fontSize=12;image=img/lib/mscae/Azure_Database_for_PostgreSQL_servers.svg;rounded=0;" vertex="1" parent="1">
                    <mxGeometry x="210" y="173" width="38" height="50" as="geometry"/>
                </mxCell>
            </root>
        </mxGraphModel>
    </diagram>
</mxfile>